<svg id="e5LbrPEdAfs1" xmlns="http://www.w3.org/2000/svg" xmlns:xlink="http://www.w3.org/1999/xlink" viewBox="0 0 96 96" shape-rendering="geometricPrecision" text-rendering="geometricPrecision"><ellipse rx="18.733688" ry="18.733688" transform="matrix(1.011192 0 0 1.063865 48 65)" fill="#02c6cf" stroke="#6b6363"/><path d="M44.252077,46.042374L44.252076,48q-3.729603,2.067829-6.487397,7.011591-1.078846,1.933994-5.536484,0q3.476586-6.964894,12.023882-8.969217Z" fill="#00adb5" stroke-width="0.5"/><ellipse rx="3.405773" ry="3.058984" transform="matrix(1.011192 0 0 1.063865 35.672085 31.963957)" fill="#ecbb9c" stroke="#6a6262"/><ellipse rx="3.405773" ry="3.058984" transform="matrix(1.011192 0 0 1.063865 61.672085 31.963957)" fill="#ffcba9" stroke="#6a6262"/><rect width="66" height="39.160947" rx="3" ry="3" transform="translate(15.868536 56.019527)" paint-order="stroke fill markers" fill="#d2dbed" stroke="#6b6363" stroke-width="2"/><path d="M19.11895,48c-1.79515,0-3.25041-1.90318-3.25041-4.25088v-4.25088h6.50083v4.25088c0,2.3477-1.45526,4.25088-3.25041,4.25088h-.00001Z" transform="matrix(1.011192 0 0 1.063865 28.667066 1.205962)" fill="#ecbb9c" stroke="#6b6363"/><path d="M48,42.26631c-8.41868,0-15.24337-6.82469-15.24337-15.24337v-15.24337h30.48674v15.24337c0,8.41868-6.82469,15.24337-15.24337,15.24337Z" transform="matrix(.824042 0 0 0.800882 8.945984 11.380754)" fill="#ffcba9" stroke="#6a6262"/><path d="M38.19815,17.267377q0,0-.504043,6.040868l20.572204,2.157791q11.754212.134273,15.441844-14.879658c3.687632-15.013931-.473638,0-22.457741,0-8.083347-.471137-9.966261.542555-10.770133,1.216603-1.014609.850751-2.282131,5.087755-2.282131,5.464396Z" transform="matrix(.821467 0 0 1.063865 6.800214-.197192)" fill="#aa6b34" stroke="#6a6262"/><ellipse rx="2.182678" ry="2.182678" transform="matrix(1.011192 0 0 1.063865 42.260536 32.146635)" fill="#6a6262" stroke-width="0"/><path d="M39.173516,25.536958Q38.7133,43.226757,47.231645,44.749999c.763783.136579-9.052914,0-11.030791-10.327005-.126457-.660263,0-3.287179,0-6.340816q0-2.100928,2.972662-2.54522Z" transform="translate(.000003 0.000001)" fill="#ecbb9c" stroke-width="0.5"/><ellipse rx="2.182678" ry="2.182678" transform="matrix(1.011192 0 0 1.063865 54.260536 32.146635)" fill="#6a6262" stroke-width="0"/><path d="M39.173515,16.548543c-.312378,4.279684-.057544-2.010396,12.879914-2.010396q6.819153.955675,15.707659-8.159988c0,0,.495221-2.519385,0-2.120213-9.532897,7.683974-17.761092,7.142053-17.761092,7.142053-6.150056,0-10.340889-1.504232-10.826481,5.148544Z" transform="translate(.000004 0.000001)" fill="#9e622e" stroke-width="0.5"/><path d="M15.8091,22.85659v-6.7202h.00094c-.00005-.00739-.00008-.01479-.00008-.02219c0-1.62924,1.30957-2.95,2.925-2.95s2.925,1.32076,2.925,2.95c0,.0074-.00003.0148-.00008.02219h.02874v6.7202h-.03966c.00728.08489.011.17081.011.2576c0,1.62924-1.30957,2.95-2.925,2.95s-2.925-1.32076-2.925-2.95c0-.08679.00372-.17271.011-.2576h-.01186Z" transform="matrix(1.011192 0 0 1.068973 17.24216-.315939)" fill="#aa6b34" stroke="#6a6262"/><path d="M15.8091,22.85659v-6.7202h.000974c-.000052-.00739-.000083-.01479-.000083-.02219c0-1.62924,1.356246-2.95,3.029254-2.95s3.029254,1.32076,3.029254,2.95c0,.0074-.000031.0148-.000083.02219h.029764v6.7202h-.041073c.007539.08489.011392.17081.011392.2576c0,1.62924-1.356246,2.95-3.029254,2.95s-3.029254-1.32076-3.029254-2.95c0-.08679.003852-.17271.011392-.2576h-.012283Z" transform="matrix(.821142 0 0 0.827468 20.704524 3.420987)" fill="#9e622e"/><polygon points="0,-3.32953 2.883457,-1.664765 2.883457,1.664765 0,3.32953 -2.883457,1.664765 -2.883457,-1.664765 0,-3.32953" transform="matrix(-1.299803 0.748674-.748674-1.299803 48 75.600001)" fill="#c0c8d8" stroke="#6a6262"/><path d="M21.172015,95.180474v-39.160947c-.9042-.000512-2.135734-.084491-2.775734,0-1.590764.210008-2.527746,1.350702-2.527746,2.683851c0,2.686853,0,14.138233,0,33.32c0,2.167279,1.076358,3.157096,2.527746,3.157096c1.18,0,2.775734,0,2.775734,0Z" transform="translate(.000001 0)" fill="#c0c8d8" stroke-width="0.5"/><path d="M45.498442,38.658931q2.869699,3.211463,5.003116-.069679" fill="none" stroke="#6a6262" stroke-linecap="round"/></svg>
